<svg width="132" height="28" viewBox="0 0 132 28" fill="none" xmlns="http://www.w3.org/2000/svg">
<g clip-path="url(#clip0_358_4018)">
<path d="M21.7983 11.7894C21.4065 10.4385 20.6937 9.20245 19.7207 8.18669C18.7477 7.17092 17.5434 6.40563 16.2106 5.95612C14.8938 5.57283 13.5097 5.47865 12.1532 5.68001C10.7966 5.88138 9.49958 6.37354 8.35091 7.12278C8.25639 7.2175 8.13787 7.28469 8.00805 7.31714C7.87824 7.3496 7.74204 7.34609 7.61407 7.30699C7.35607 7.22341 7.12362 7.07549 6.93863 6.87717C6.80397 6.63419 6.76042 6.35114 6.81582 6.07892C6.85101 5.94826 6.9128 5.82628 6.99733 5.72062C7.08186 5.61495 7.1873 5.52789 7.30705 5.46489C10.5614 3.56138 13.7544 3.07015 16.8246 4.05261C18.3361 4.55536 19.7161 5.38974 20.8635 6.49466C22.0109 7.59959 22.8968 8.9471 23.4562 10.4386H27.5702C26.729 7.12031 24.7011 4.22526 21.8701 2.30077C19.039 0.376283 15.601 -0.444251 12.206 -0.00569532C8.81093 0.43286 5.69423 2.10011 3.44514 4.68083C1.19605 7.26155 -0.0295595 10.5769 3.54369e-05 14C3.54369e-05 14.5526 0.0614389 15.0438 0.0614389 15.5965H5.28074C5.48007 15.5852 5.67768 15.6389 5.8438 15.7497C6.00992 15.8604 6.13556 16.0222 6.20179 16.2105C6.60284 17.5568 7.31887 18.7881 8.29059 19.8025C9.2623 20.817 10.4617 21.5853 11.7895 22.0438C13.1063 22.4271 14.4903 22.5213 15.8469 22.3199C17.2035 22.1186 18.5005 21.6264 19.6492 20.8772C19.7437 20.7825 19.8622 20.7153 19.992 20.6828C20.1218 20.6504 20.258 20.6539 20.386 20.693C20.644 20.7765 20.8765 20.9245 21.0614 21.1228C21.1961 21.3658 21.2397 21.6488 21.1842 21.921C21.1491 22.0517 21.0873 22.1737 21.0027 22.2793C20.9182 22.385 20.8128 22.4721 20.693 22.5351C18.8421 23.7805 16.6608 24.4434 14.4299 24.4386C13.3272 24.4303 12.2314 24.2649 11.1755 23.9473C9.65762 23.4566 8.27154 22.6264 7.12247 21.5199C5.9734 20.4134 5.09156 19.0596 4.5439 17.5614H0.491263C1.37895 20.8251 3.41814 23.6571 6.23189 25.5339C9.04565 27.4107 12.4437 28.2054 15.798 27.7712C19.1523 27.3369 22.2359 25.703 24.4789 23.1715C26.722 20.64 27.9727 17.3821 28 14C28.0115 13.4875 27.991 12.9748 27.9386 12.4649H22.7807C22.5714 12.4511 22.3696 12.381 22.1967 12.2621C22.0238 12.1433 21.8862 11.98 21.7983 11.7894Z" fill="#100A42"/>
<path d="M14.0594 20.1247C15.2682 20.1131 16.4466 19.744 17.4461 19.064C18.4455 18.3839 19.2214 17.4233 19.676 16.3031C20.1305 15.183 20.2435 13.9533 20.0005 12.7691C19.7576 11.5849 19.1696 10.499 18.3107 9.6483C17.4518 8.79759 16.3604 8.22006 15.1739 7.98846C13.9874 7.75686 12.7589 7.88154 11.6432 8.34681C10.5274 8.81208 9.57424 9.59712 8.90379 10.6031C8.23333 11.609 7.87554 12.7908 7.87549 13.9997C7.87545 14.809 8.03581 15.6104 8.3473 16.3573C8.65878 17.1043 9.11522 17.7822 9.69023 18.3517C10.2652 18.9212 10.9474 19.3712 11.6974 19.6755C12.4473 19.9798 13.2501 20.1325 14.0594 20.1247Z" fill="white"/>
</g>
<path d="M44.864 19V7.32H47.488V19H44.864ZM37.312 19V7.32H39.936V19H37.312ZM39.472 14.28V11.976H45.328V14.28H39.472ZM53.9809 19.304C53.2342 19.304 52.5729 19.176 51.9969 18.92C51.4315 18.664 50.9569 18.3227 50.5729 17.896C50.1995 17.4587 49.9115 16.9733 49.7089 16.44C49.5169 15.896 49.4209 15.3413 49.4209 14.776V14.456C49.4209 13.8693 49.5169 13.3093 49.7089 12.776C49.9115 12.232 50.1995 11.7467 50.5729 11.32C50.9462 10.8933 51.4102 10.5573 51.9649 10.312C52.5302 10.056 53.1702 9.928 53.8849 9.928C54.8235 9.928 55.6129 10.1413 56.2529 10.568C56.9035 10.984 57.3995 11.5333 57.7409 12.216C58.0822 12.888 58.2529 13.624 58.2529 14.424V15.288H50.4929V13.832H56.7009L55.8689 14.504C55.8689 13.9813 55.7942 13.5333 55.6449 13.16C55.4955 12.7867 55.2715 12.504 54.9729 12.312C54.6849 12.1093 54.3222 12.008 53.8849 12.008C53.4369 12.008 53.0582 12.1093 52.7489 12.312C52.4395 12.5147 52.2049 12.8133 52.0449 13.208C51.8849 13.592 51.8049 14.0667 51.8049 14.632C51.8049 15.1547 51.8795 15.6133 52.0289 16.008C52.1782 16.392 52.4129 16.6907 52.7329 16.904C53.0529 17.1173 53.4689 17.224 53.9809 17.224C54.4502 17.224 54.8342 17.1333 55.1329 16.952C55.4315 16.7707 55.6342 16.5467 55.7409 16.28H58.0929C57.9649 16.8667 57.7142 17.3893 57.3409 17.848C56.9675 18.3067 56.4982 18.664 55.9329 18.92C55.3675 19.176 54.7169 19.304 53.9809 19.304ZM60.0613 19V7.32H62.6373V19H60.0613ZM59.0213 9.208V7.32H62.6373V9.208H59.0213ZM64.9961 22.2V10.232H67.0281V14.024L66.7561 14.008C66.7988 13.1333 66.9801 12.3973 67.3001 11.8C67.6201 11.192 68.0521 10.7387 68.5961 10.44C69.1401 10.1307 69.7535 9.976 70.4361 9.976C71.0441 9.976 71.5935 10.088 72.0841 10.312C72.5855 10.536 73.0121 10.8507 73.3641 11.256C73.7268 11.6507 73.9988 12.12 74.1801 12.664C74.3721 13.1973 74.4681 13.784 74.4681 14.424V14.792C74.4681 15.4213 74.3775 16.0133 74.1961 16.568C74.0148 17.112 73.7481 17.5867 73.3961 17.992C73.0548 18.3973 72.6335 18.7173 72.1321 18.952C71.6415 19.176 71.0761 19.288 70.4361 19.288C69.7748 19.288 69.1775 19.1547 68.6441 18.888C68.1215 18.6107 67.7001 18.1947 67.3801 17.64C67.0601 17.0747 66.8841 16.36 66.8521 15.496L67.5561 16.456V22.2H64.9961ZM69.7161 17.144C70.1535 17.144 70.5321 17.0373 70.8521 16.824C71.1828 16.6107 71.4388 16.312 71.6201 15.928C71.8015 15.544 71.8921 15.1013 71.8921 14.6C71.8921 14.0987 71.8015 13.6613 71.6201 13.288C71.4388 12.9147 71.1881 12.6267 70.8681 12.424C70.5481 12.2107 70.1641 12.104 69.7161 12.104C69.3321 12.104 68.9695 12.1947 68.6281 12.376C68.2868 12.5573 68.0095 12.8187 67.7961 13.16C67.5935 13.4907 67.4921 13.896 67.4921 14.376V14.968C67.4921 15.4267 67.5988 15.8213 67.8121 16.152C68.0361 16.472 68.3188 16.7173 68.6601 16.888C69.0015 17.0587 69.3535 17.144 69.7161 17.144ZM76.3901 19V7.32H80.0061L82.6781 13.88H82.9821L85.6221 7.32H89.3021V19H86.7101V9.032L87.0781 9.064L83.9901 16.632H81.4941L78.3901 9.064L78.7901 9.032V19H76.3901ZM95.7934 19.304C95.0467 19.304 94.3854 19.176 93.8094 18.92C93.244 18.664 92.7694 18.3227 92.3854 17.896C92.012 17.4587 91.724 16.9733 91.5214 16.44C91.3294 15.896 91.2334 15.3413 91.2334 14.776V14.456C91.2334 13.8693 91.3294 13.3093 91.5214 12.776C91.724 12.232 92.012 11.7467 92.3854 11.32C92.7587 10.8933 93.2227 10.5573 93.7774 10.312C94.3427 10.056 94.9827 9.928 95.6974 9.928C96.636 9.928 97.4254 10.1413 98.0654 10.568C98.716 10.984 99.212 11.5333 99.5534 12.216C99.8947 12.888 100.065 13.624 100.065 14.424V15.288H92.3054V13.832H98.5134L97.6814 14.504C97.6814 13.9813 97.6067 13.5333 97.4574 13.16C97.308 12.7867 97.084 12.504 96.7854 12.312C96.4974 12.1093 96.1347 12.008 95.6974 12.008C95.2494 12.008 94.8707 12.1093 94.5614 12.312C94.252 12.5147 94.0174 12.8133 93.8574 13.208C93.6974 13.592 93.6174 14.0667 93.6174 14.632C93.6174 15.1547 93.692 15.6133 93.8414 16.008C93.9907 16.392 94.2254 16.6907 94.5454 16.904C94.8654 17.1173 95.2814 17.224 95.7934 17.224C96.2627 17.224 96.6467 17.1333 96.9454 16.952C97.244 16.7707 97.4467 16.5467 97.5534 16.28H99.9054C99.7774 16.8667 99.5267 17.3893 99.1534 17.848C98.78 18.3067 98.3107 18.664 97.7454 18.92C97.18 19.176 96.5294 19.304 95.7934 19.304ZM107.506 19.304C106.45 19.304 105.527 19.1227 104.738 18.76C103.959 18.3867 103.314 17.9013 102.802 17.304C102.29 16.696 101.906 16.04 101.65 15.336C101.404 14.632 101.282 13.9547 101.282 13.304V12.952C101.282 12.2267 101.41 11.512 101.666 10.808C101.932 10.0933 102.327 9.448 102.85 8.872C103.372 8.296 104.023 7.83733 104.802 7.496C105.58 7.144 106.482 6.968 107.506 6.968C108.53 6.968 109.431 7.144 110.21 7.496C110.988 7.83733 111.639 8.296 112.162 8.872C112.684 9.448 113.079 10.0933 113.346 10.808C113.612 11.512 113.746 12.2267 113.746 12.952V13.304C113.746 13.9547 113.618 14.632 113.362 15.336C113.106 16.04 112.722 16.696 112.21 17.304C111.698 17.9013 111.047 18.3867 110.258 18.76C109.479 19.1227 108.562 19.304 107.506 19.304ZM107.506 16.856C108.06 16.856 108.556 16.76 108.994 16.568C109.442 16.376 109.82 16.1093 110.13 15.768C110.45 15.4267 110.69 15.032 110.85 14.584C111.01 14.136 111.09 13.656 111.09 13.144C111.09 12.6 111.004 12.104 110.834 11.656C110.674 11.1973 110.434 10.8027 110.114 10.472C109.804 10.1307 109.431 9.86933 108.994 9.688C108.556 9.50667 108.06 9.416 107.506 9.416C106.951 9.416 106.455 9.50667 106.018 9.688C105.58 9.86933 105.202 10.1307 104.882 10.472C104.572 10.8027 104.338 11.1973 104.178 11.656C104.018 12.104 103.938 12.6 103.938 13.144C103.938 13.656 104.018 14.136 104.178 14.584C104.338 15.032 104.572 15.4267 104.882 15.768C105.202 16.1093 105.58 16.376 106.018 16.568C106.455 16.76 106.951 16.856 107.506 16.856ZM118.55 19.272C117.537 19.272 116.758 18.9467 116.214 18.296C115.67 17.6347 115.398 16.6427 115.398 15.32V10.232H117.958V15.448C117.958 15.9173 118.091 16.2907 118.358 16.568C118.625 16.8453 118.982 16.984 119.43 16.984C119.889 16.984 120.262 16.84 120.55 16.552C120.838 16.264 120.982 15.8747 120.982 15.384V10.232H123.542V19H121.51V15.304H121.686C121.686 16.1893 121.569 16.9307 121.334 17.528C121.11 18.1147 120.774 18.552 120.326 18.84C119.878 19.128 119.323 19.272 118.662 19.272H118.55ZM129.886 19.112C129.001 19.112 128.286 19.0053 127.742 18.792C127.198 18.568 126.798 18.2 126.542 17.688C126.297 17.1653 126.174 16.4613 126.174 15.576V7.864H128.558V15.672C128.558 16.088 128.665 16.408 128.878 16.632C129.102 16.8453 129.417 16.952 129.822 16.952H131.118V19.112H129.886ZM124.846 12.104V10.232H131.118V12.104H124.846Z" fill="#120B48"/>
<defs>
<clipPath id="clip0_358_4018">
<rect width="28" height="28" fill="white"/>
</clipPath>
</defs>
</svg>
